<svg id="Layer_1" enable-background="new 0 0 512 512" height="512" viewBox="0 0 512 512" width="512" xmlns="http://www.w3.org/2000/svg"><g clip-rule="evenodd" fill-rule="evenodd"><path d="m126.159.003h259.682c67.096 0 121.947 54.879 121.947 121.947v268.1c0 67.068-54.851 121.947-121.947 121.947h-259.682c-67.068 0-121.947-54.879-121.947-121.947v-268.1c.001-67.068 54.879-121.947 121.947-121.947z" fill="#4678f3"/><path d="m301.283 291.121-74.58-58.96-103.266 41.074c-3.118 1.248-5.726 3.175-7.654 5.641-1.984 2.495-3.26 5.471-3.742 8.759-.482 3.316-.113 6.548 1.049 9.468 1.191 2.948 3.118 5.527 5.754 7.625l26.447 20.891c5.754-7.285 11.509-14.57 17.291-21.855 1.531-1.956 4.394-2.296 6.378-.737 1.956 1.559 2.296 4.394.737 6.378-5.754 7.285-11.509 14.57-17.291 21.855l18.482 14.599c5.754-7.285 11.509-14.599 17.263-21.884 1.559-1.956 4.422-2.296 6.378-.737 1.984 1.559 2.296 4.422.765 6.378-5.783 7.285-11.537 14.57-17.291 21.855l18.453 14.599c5.783-7.285 11.537-14.57 17.292-21.855 1.559-1.984 4.394-2.324 6.378-.765 1.956 1.559 2.296 4.422.737 6.378-5.754 7.285-11.509 14.57-17.263 21.883l18.454 14.57c5.754-7.285 11.509-14.57 17.291-21.855 1.531-1.956 4.394-2.296 6.378-.737 1.956 1.531 2.296 4.394.737 6.35-5.754 7.313-11.509 14.599-17.291 21.884l26.476 20.891c2.636 2.098 5.613 3.401 8.731 3.855 3.09.454 6.321.057 9.439-1.19 3.118-1.219 5.726-3.175 7.682-5.641 1.956-2.494 3.232-5.471 3.713-8.759zm-12.274-91.786 30.501 24.123 76.479-96.803c3.345-4.224 4.649-9.383 4.054-14.315-.567-4.933-3.033-9.667-7.229-13.011l-.312-.227-.028-.028c-4.167-3.118-9.185-4.337-13.975-3.799-4.96.596-9.694 3.062-13.011 7.257zm-54.085 27.78 69.392 54.822 13.124-16.639c4.28-5.415 5.953-12.076 5.216-18.425-.737-6.151-3.713-12.047-8.787-16.299h.028l-30.529-24.123-.114-.085c-5.414-4.28-12.076-5.953-18.425-5.216-6.378.766-12.472 3.94-16.753 9.354z" fill="#fff"/></g></svg>