<svg id="Layer_2" height="512" viewBox="0 0 512 512" width="512" xmlns="http://www.w3.org/2000/svg" xmlns:xlink="http://www.w3.org/1999/xlink" data-name="Layer 2"><linearGradient id="linear-gradient" gradientUnits="userSpaceOnUse" x1="145.69" x2="435.45" y1="210.92" y2="500.68"><stop offset="0" stop-opacity=".35"/><stop offset="1" stop-opacity="0"/></linearGradient><g id="Social_Icon" data-name="Social Icon"><g id="PaperPlane"><rect id="Background" fill="#1e88e5" height="512" rx="150" width="512"/><path d="m512 306.58v55.42c0 82.84-67.16 150-150 150h-185.89l-99.02-99.02 107.72-110.75-65.22-65.21 315.59-7.27z" fill="url(#linear-gradient)"/><path id="PaperPlane-2" d="m104.36 87.64c-28.83 0-47.33 30.65-33.89 56.16l49.12 93.22 164.84 18.98-164.84 18.98-49.12 93.22c-13.44 25.51 5.05 56.16 33.89 56.16 5.22 0 10.39-1.07 15.18-3.14l304.18-131.35c29.7-12.82 29.7-54.94 0-67.76l-304.18-131.33c-4.79-2.07-9.96-3.14-15.18-3.14z" fill="#fff" data-name="PaperPlane"/></g></g></svg>